<mxfile host="app.diagrams.net" modified="2024-03-09T19:43:10.927Z" agent="Mozilla/5.0 (Macintosh; Intel Mac OS X 10.15; rv:123.0) Gecko/20100101 Firefox/123.0" etag="UGi-96jw5tyelaTcC-YC" version="24.0.2" type="device">
  <diagram name="Page-1" id="FEIuvX2wDZiRMtSvo_t1">
    <mxGraphModel dx="1283" dy="824" grid="1" gridSize="10" guides="1" tooltips="1" connect="1" arrows="1" fold="1" page="1" pageScale="1" pageWidth="850" pageHeight="1100" math="0" shadow="0">
      <root>
        <mxCell id="0" />
        <mxCell id="1" parent="0" />
        <mxCell id="kO967tKkcWALMBzPkCd4-76" value="" style="rounded=0;whiteSpace=wrap;html=1;fillColor=#dae8fc;strokeColor=#6c8ebf;" vertex="1" parent="1">
          <mxGeometry x="360" y="560" width="80" height="40" as="geometry" />
        </mxCell>
        <mxCell id="kO967tKkcWALMBzPkCd4-77" value="" style="rounded=0;whiteSpace=wrap;html=1;fillColor=#dae8fc;strokeColor=#6c8ebf;" vertex="1" parent="1">
          <mxGeometry x="360" y="600" width="80" height="40" as="geometry" />
        </mxCell>
        <mxCell id="kO967tKkcWALMBzPkCd4-78" value="" style="rounded=0;whiteSpace=wrap;html=1;fillColor=#dae8fc;strokeColor=#6c8ebf;" vertex="1" parent="1">
          <mxGeometry x="360" y="640" width="80" height="40" as="geometry" />
        </mxCell>
        <mxCell id="kO967tKkcWALMBzPkCd4-79" value="" style="rounded=0;whiteSpace=wrap;html=1;fillColor=#e1d5e7;strokeColor=#9673a6;" vertex="1" parent="1">
          <mxGeometry x="360" y="680" width="80" height="40" as="geometry" />
        </mxCell>
        <mxCell id="kO967tKkcWALMBzPkCd4-68" value="" style="rounded=0;whiteSpace=wrap;html=1;fillColor=#f8cecc;strokeColor=#b85450;" vertex="1" parent="1">
          <mxGeometry x="360" y="400" width="80" height="40" as="geometry" />
        </mxCell>
        <mxCell id="kO967tKkcWALMBzPkCd4-69" value="" style="rounded=0;whiteSpace=wrap;html=1;fillColor=#f8cecc;strokeColor=#b85450;" vertex="1" parent="1">
          <mxGeometry x="360" y="440" width="80" height="40" as="geometry" />
        </mxCell>
        <mxCell id="kO967tKkcWALMBzPkCd4-70" value="" style="rounded=0;whiteSpace=wrap;html=1;fillColor=#f8cecc;strokeColor=#b85450;" vertex="1" parent="1">
          <mxGeometry x="360" y="480" width="80" height="40" as="geometry" />
        </mxCell>
        <mxCell id="kO967tKkcWALMBzPkCd4-71" value="" style="rounded=0;whiteSpace=wrap;html=1;fillColor=#f8cecc;strokeColor=#b85450;" vertex="1" parent="1">
          <mxGeometry x="360" y="520" width="80" height="40" as="geometry" />
        </mxCell>
        <mxCell id="kO967tKkcWALMBzPkCd4-14" value="" style="rounded=0;whiteSpace=wrap;html=1;fillColor=none;" vertex="1" parent="1">
          <mxGeometry x="360" y="400" width="80" height="320" as="geometry" />
        </mxCell>
        <mxCell id="kO967tKkcWALMBzPkCd4-80" value="" style="rounded=0;whiteSpace=wrap;html=1;fillColor=#f8cecc;strokeColor=#b85450;" vertex="1" parent="1">
          <mxGeometry x="100" y="400" width="80" height="40" as="geometry" />
        </mxCell>
        <mxCell id="kO967tKkcWALMBzPkCd4-81" value="" style="rounded=0;whiteSpace=wrap;html=1;fillColor=#f8cecc;strokeColor=#b85450;" vertex="1" parent="1">
          <mxGeometry x="100" y="440" width="80" height="40" as="geometry" />
        </mxCell>
        <mxCell id="kO967tKkcWALMBzPkCd4-59" value="" style="rounded=0;whiteSpace=wrap;html=1;fillColor=#d5e8d4;strokeColor=#82b366;" vertex="1" parent="1">
          <mxGeometry x="360" y="239.65" width="80" height="40" as="geometry" />
        </mxCell>
        <mxCell id="kO967tKkcWALMBzPkCd4-60" value="" style="rounded=0;whiteSpace=wrap;html=1;fillColor=#d5e8d4;strokeColor=#82b366;" vertex="1" parent="1">
          <mxGeometry x="360" y="279.65" width="80" height="40" as="geometry" />
        </mxCell>
        <mxCell id="kO967tKkcWALMBzPkCd4-61" value="" style="rounded=0;whiteSpace=wrap;html=1;fillColor=#d5e8d4;strokeColor=#82b366;" vertex="1" parent="1">
          <mxGeometry x="360" y="319.65" width="80" height="40" as="geometry" />
        </mxCell>
        <mxCell id="kO967tKkcWALMBzPkCd4-62" value="" style="rounded=0;whiteSpace=wrap;html=1;fillColor=#d5e8d4;strokeColor=#82b366;" vertex="1" parent="1">
          <mxGeometry x="360" y="359.65" width="80" height="40" as="geometry" />
        </mxCell>
        <mxCell id="kO967tKkcWALMBzPkCd4-57" value="" style="rounded=0;whiteSpace=wrap;html=1;fillColor=#d5e8d4;strokeColor=#82b366;" vertex="1" parent="1">
          <mxGeometry x="100" y="360" width="80" height="40" as="geometry" />
        </mxCell>
        <mxCell id="kO967tKkcWALMBzPkCd4-56" value="" style="rounded=0;whiteSpace=wrap;html=1;fillColor=#d5e8d4;strokeColor=#82b366;" vertex="1" parent="1">
          <mxGeometry x="100" y="320" width="80" height="40" as="geometry" />
        </mxCell>
        <mxCell id="kO967tKkcWALMBzPkCd4-1" value="" style="rounded=0;whiteSpace=wrap;html=1;fillColor=none;" vertex="1" parent="1">
          <mxGeometry x="100" y="320" width="80" height="160" as="geometry" />
        </mxCell>
        <mxCell id="kO967tKkcWALMBzPkCd4-2" value="" style="rounded=0;whiteSpace=wrap;html=1;fillColor=none;" vertex="1" parent="1">
          <mxGeometry x="360" y="239.65" width="80" height="160" as="geometry" />
        </mxCell>
        <mxCell id="kO967tKkcWALMBzPkCd4-4" value="" style="endArrow=none;html=1;rounded=0;" edge="1" parent="1">
          <mxGeometry width="50" height="50" relative="1" as="geometry">
            <mxPoint x="180" y="360" as="sourcePoint" />
            <mxPoint x="100" y="360" as="targetPoint" />
          </mxGeometry>
        </mxCell>
        <mxCell id="kO967tKkcWALMBzPkCd4-5" value="" style="endArrow=none;html=1;rounded=0;" edge="1" parent="1">
          <mxGeometry width="50" height="50" relative="1" as="geometry">
            <mxPoint x="180" y="399.68" as="sourcePoint" />
            <mxPoint x="100" y="399.68" as="targetPoint" />
          </mxGeometry>
        </mxCell>
        <mxCell id="kO967tKkcWALMBzPkCd4-6" value="" style="endArrow=none;html=1;rounded=0;" edge="1" parent="1">
          <mxGeometry width="50" height="50" relative="1" as="geometry">
            <mxPoint x="180" y="440" as="sourcePoint" />
            <mxPoint x="100" y="440" as="targetPoint" />
          </mxGeometry>
        </mxCell>
        <mxCell id="kO967tKkcWALMBzPkCd4-7" value="" style="endArrow=none;html=1;rounded=0;" edge="1" parent="1">
          <mxGeometry width="50" height="50" relative="1" as="geometry">
            <mxPoint x="440" y="279.65" as="sourcePoint" />
            <mxPoint x="360" y="279.65" as="targetPoint" />
          </mxGeometry>
        </mxCell>
        <mxCell id="kO967tKkcWALMBzPkCd4-8" value="" style="endArrow=none;html=1;rounded=0;" edge="1" parent="1">
          <mxGeometry width="50" height="50" relative="1" as="geometry">
            <mxPoint x="440" y="319.65" as="sourcePoint" />
            <mxPoint x="360" y="319.65" as="targetPoint" />
          </mxGeometry>
        </mxCell>
        <mxCell id="kO967tKkcWALMBzPkCd4-9" value="" style="endArrow=none;html=1;rounded=0;" edge="1" parent="1">
          <mxGeometry width="50" height="50" relative="1" as="geometry">
            <mxPoint x="440" y="359.65" as="sourcePoint" />
            <mxPoint x="360" y="359.65" as="targetPoint" />
          </mxGeometry>
        </mxCell>
        <mxCell id="kO967tKkcWALMBzPkCd4-15" value="" style="endArrow=none;html=1;rounded=0;" edge="1" parent="1">
          <mxGeometry width="50" height="50" relative="1" as="geometry">
            <mxPoint x="440" y="440" as="sourcePoint" />
            <mxPoint x="360" y="440" as="targetPoint" />
          </mxGeometry>
        </mxCell>
        <mxCell id="kO967tKkcWALMBzPkCd4-16" value="" style="endArrow=none;html=1;rounded=0;" edge="1" parent="1">
          <mxGeometry width="50" height="50" relative="1" as="geometry">
            <mxPoint x="440" y="480" as="sourcePoint" />
            <mxPoint x="360" y="480" as="targetPoint" />
          </mxGeometry>
        </mxCell>
        <mxCell id="kO967tKkcWALMBzPkCd4-17" value="" style="endArrow=none;html=1;rounded=0;" edge="1" parent="1">
          <mxGeometry width="50" height="50" relative="1" as="geometry">
            <mxPoint x="440" y="520" as="sourcePoint" />
            <mxPoint x="360" y="520" as="targetPoint" />
          </mxGeometry>
        </mxCell>
        <mxCell id="kO967tKkcWALMBzPkCd4-18" value="" style="endArrow=none;html=1;rounded=0;" edge="1" parent="1">
          <mxGeometry width="50" height="50" relative="1" as="geometry">
            <mxPoint x="440" y="560" as="sourcePoint" />
            <mxPoint x="360" y="560" as="targetPoint" />
          </mxGeometry>
        </mxCell>
        <mxCell id="kO967tKkcWALMBzPkCd4-22" value="0x0000" style="text;html=1;align=right;verticalAlign=middle;whiteSpace=wrap;rounded=0;" vertex="1" parent="1">
          <mxGeometry x="40" y="300" width="50" height="30" as="geometry" />
        </mxCell>
        <mxCell id="kO967tKkcWALMBzPkCd4-23" value="0xFFFF" style="text;html=1;align=right;verticalAlign=middle;whiteSpace=wrap;rounded=0;" vertex="1" parent="1">
          <mxGeometry x="40" y="460" width="50" height="30" as="geometry" />
        </mxCell>
        <mxCell id="kO967tKkcWALMBzPkCd4-24" value="" style="endArrow=none;dashed=1;html=1;rounded=0;entryX=0;entryY=0;entryDx=0;entryDy=0;" edge="1" parent="1" target="kO967tKkcWALMBzPkCd4-2">
          <mxGeometry width="50" height="50" relative="1" as="geometry">
            <mxPoint x="180" y="320" as="sourcePoint" />
            <mxPoint x="230" y="270" as="targetPoint" />
          </mxGeometry>
        </mxCell>
        <mxCell id="kO967tKkcWALMBzPkCd4-25" value="" style="endArrow=none;dashed=1;html=1;rounded=0;entryX=0;entryY=1;entryDx=0;entryDy=0;exitX=1;exitY=0.5;exitDx=0;exitDy=0;" edge="1" parent="1" source="kO967tKkcWALMBzPkCd4-1" target="kO967tKkcWALMBzPkCd4-2">
          <mxGeometry width="50" height="50" relative="1" as="geometry">
            <mxPoint x="180" y="360" as="sourcePoint" />
            <mxPoint x="380" y="160" as="targetPoint" />
          </mxGeometry>
        </mxCell>
        <mxCell id="kO967tKkcWALMBzPkCd4-26" value="" style="endArrow=none;dashed=1;html=1;rounded=0;entryX=0;entryY=0;entryDx=0;entryDy=0;exitX=1;exitY=0.5;exitDx=0;exitDy=0;" edge="1" parent="1" source="kO967tKkcWALMBzPkCd4-1" target="kO967tKkcWALMBzPkCd4-14">
          <mxGeometry width="50" height="50" relative="1" as="geometry">
            <mxPoint x="150" y="580" as="sourcePoint" />
            <mxPoint x="350" y="620" as="targetPoint" />
          </mxGeometry>
        </mxCell>
        <mxCell id="kO967tKkcWALMBzPkCd4-27" value="" style="endArrow=none;dashed=1;html=1;rounded=0;entryX=0;entryY=1;entryDx=0;entryDy=0;exitX=1;exitY=0.5;exitDx=0;exitDy=0;" edge="1" parent="1" target="kO967tKkcWALMBzPkCd4-14">
          <mxGeometry width="50" height="50" relative="1" as="geometry">
            <mxPoint x="180" y="480" as="sourcePoint" />
            <mxPoint x="380" y="560" as="targetPoint" />
          </mxGeometry>
        </mxCell>
        <mxCell id="kO967tKkcWALMBzPkCd4-28" value="ROM" style="text;html=1;align=center;verticalAlign=middle;whiteSpace=wrap;rounded=0;" vertex="1" parent="1">
          <mxGeometry x="370" y="249.65" width="60" height="30" as="geometry" />
        </mxCell>
        <mxCell id="kO967tKkcWALMBzPkCd4-29" value="ROM" style="text;html=1;align=center;verticalAlign=middle;whiteSpace=wrap;rounded=0;" vertex="1" parent="1">
          <mxGeometry x="370" y="289.65" width="60" height="30" as="geometry" />
        </mxCell>
        <mxCell id="kO967tKkcWALMBzPkCd4-30" value="ROM" style="text;html=1;align=center;verticalAlign=middle;whiteSpace=wrap;rounded=0;" vertex="1" parent="1">
          <mxGeometry x="370" y="329.65" width="60" height="30" as="geometry" />
        </mxCell>
        <mxCell id="kO967tKkcWALMBzPkCd4-31" value="ROM" style="text;html=1;align=center;verticalAlign=middle;whiteSpace=wrap;rounded=0;" vertex="1" parent="1">
          <mxGeometry x="370" y="369.65" width="60" height="30" as="geometry" />
        </mxCell>
        <mxCell id="kO967tKkcWALMBzPkCd4-36" value="RAM" style="text;html=1;align=center;verticalAlign=middle;whiteSpace=wrap;rounded=0;" vertex="1" parent="1">
          <mxGeometry x="370" y="410" width="60" height="30" as="geometry" />
        </mxCell>
        <mxCell id="kO967tKkcWALMBzPkCd4-37" value="RAM" style="text;html=1;align=center;verticalAlign=middle;whiteSpace=wrap;rounded=0;" vertex="1" parent="1">
          <mxGeometry x="370" y="450" width="60" height="30" as="geometry" />
        </mxCell>
        <mxCell id="kO967tKkcWALMBzPkCd4-38" value="RAM" style="text;html=1;align=center;verticalAlign=middle;whiteSpace=wrap;rounded=0;" vertex="1" parent="1">
          <mxGeometry x="370" y="490" width="60" height="30" as="geometry" />
        </mxCell>
        <mxCell id="kO967tKkcWALMBzPkCd4-39" value="RAM" style="text;html=1;align=center;verticalAlign=middle;whiteSpace=wrap;rounded=0;" vertex="1" parent="1">
          <mxGeometry x="370" y="530" width="60" height="30" as="geometry" />
        </mxCell>
        <mxCell id="kO967tKkcWALMBzPkCd4-44" value="RAM" style="text;html=1;align=center;verticalAlign=middle;whiteSpace=wrap;rounded=0;" vertex="1" parent="1">
          <mxGeometry x="110" y="410" width="60" height="30" as="geometry" />
        </mxCell>
        <mxCell id="kO967tKkcWALMBzPkCd4-45" value="RAM" style="text;html=1;align=center;verticalAlign=middle;whiteSpace=wrap;rounded=0;" vertex="1" parent="1">
          <mxGeometry x="110" y="450" width="60" height="30" as="geometry" />
        </mxCell>
        <mxCell id="kO967tKkcWALMBzPkCd4-46" value="ROM" style="text;html=1;align=center;verticalAlign=middle;whiteSpace=wrap;rounded=0;" vertex="1" parent="1">
          <mxGeometry x="110" y="330" width="60" height="30" as="geometry" />
        </mxCell>
        <mxCell id="kO967tKkcWALMBzPkCd4-47" value="ROM" style="text;html=1;align=center;verticalAlign=middle;whiteSpace=wrap;rounded=0;" vertex="1" parent="1">
          <mxGeometry x="110" y="370" width="60" height="30" as="geometry" />
        </mxCell>
        <mxCell id="kO967tKkcWALMBzPkCd4-49" value="" style="endArrow=none;html=1;rounded=0;" edge="1" parent="1">
          <mxGeometry width="50" height="50" relative="1" as="geometry">
            <mxPoint x="440" y="600" as="sourcePoint" />
            <mxPoint x="360" y="600" as="targetPoint" />
          </mxGeometry>
        </mxCell>
        <mxCell id="kO967tKkcWALMBzPkCd4-50" value="" style="endArrow=none;html=1;rounded=0;" edge="1" parent="1">
          <mxGeometry width="50" height="50" relative="1" as="geometry">
            <mxPoint x="440" y="640" as="sourcePoint" />
            <mxPoint x="360" y="640" as="targetPoint" />
          </mxGeometry>
        </mxCell>
        <mxCell id="kO967tKkcWALMBzPkCd4-51" value="" style="endArrow=none;html=1;rounded=0;" edge="1" parent="1">
          <mxGeometry width="50" height="50" relative="1" as="geometry">
            <mxPoint x="440" y="680" as="sourcePoint" />
            <mxPoint x="360" y="680" as="targetPoint" />
          </mxGeometry>
        </mxCell>
        <mxCell id="kO967tKkcWALMBzPkCd4-52" value="VRAM" style="text;html=1;align=center;verticalAlign=middle;whiteSpace=wrap;rounded=0;" vertex="1" parent="1">
          <mxGeometry x="370" y="570" width="60" height="30" as="geometry" />
        </mxCell>
        <mxCell id="kO967tKkcWALMBzPkCd4-53" value="VRAM" style="text;html=1;align=center;verticalAlign=middle;whiteSpace=wrap;rounded=0;" vertex="1" parent="1">
          <mxGeometry x="370" y="610" width="60" height="30" as="geometry" />
        </mxCell>
        <mxCell id="kO967tKkcWALMBzPkCd4-54" value="VRAM" style="text;html=1;align=center;verticalAlign=middle;whiteSpace=wrap;rounded=0;" vertex="1" parent="1">
          <mxGeometry x="370" y="650" width="60" height="30" as="geometry" />
        </mxCell>
        <mxCell id="kO967tKkcWALMBzPkCd4-55" value="VRAM &amp;amp; IO" style="text;html=1;align=center;verticalAlign=middle;whiteSpace=wrap;rounded=0;" vertex="1" parent="1">
          <mxGeometry x="360" y="690" width="80" height="30" as="geometry" />
        </mxCell>
        <mxCell id="kO967tKkcWALMBzPkCd4-82" value="0x0000" style="text;html=1;align=left;verticalAlign=middle;whiteSpace=wrap;rounded=0;" vertex="1" parent="1">
          <mxGeometry x="450" y="219.65" width="50" height="30" as="geometry" />
        </mxCell>
        <mxCell id="kO967tKkcWALMBzPkCd4-83" value="0x2FFFF" style="text;html=1;align=center;verticalAlign=middle;whiteSpace=wrap;rounded=0;" vertex="1" parent="1">
          <mxGeometry x="450" y="700" width="50" height="30" as="geometry" />
        </mxCell>
        <mxCell id="kO967tKkcWALMBzPkCd4-84" value="0x3FFF" style="text;html=1;align=left;verticalAlign=middle;whiteSpace=wrap;rounded=0;" vertex="1" parent="1">
          <mxGeometry x="450" y="259.65" width="50" height="30" as="geometry" />
        </mxCell>
        <mxCell id="kO967tKkcWALMBzPkCd4-85" value="0x7FFF" style="text;html=1;align=left;verticalAlign=middle;whiteSpace=wrap;rounded=0;" vertex="1" parent="1">
          <mxGeometry x="450" y="299.65" width="50" height="30" as="geometry" />
        </mxCell>
        <mxCell id="kO967tKkcWALMBzPkCd4-86" value="0xBFFF" style="text;html=1;align=left;verticalAlign=middle;whiteSpace=wrap;rounded=0;" vertex="1" parent="1">
          <mxGeometry x="450" y="339.65" width="50" height="30" as="geometry" />
        </mxCell>
        <mxCell id="kO967tKkcWALMBzPkCd4-87" value="0xFFFF" style="text;html=1;align=left;verticalAlign=middle;whiteSpace=wrap;rounded=0;" vertex="1" parent="1">
          <mxGeometry x="450" y="380" width="50" height="30" as="geometry" />
        </mxCell>
        <mxCell id="kO967tKkcWALMBzPkCd4-88" value="0x13FFF" style="text;html=1;align=left;verticalAlign=middle;whiteSpace=wrap;rounded=0;" vertex="1" parent="1">
          <mxGeometry x="450" y="420" width="50" height="30" as="geometry" />
        </mxCell>
        <mxCell id="kO967tKkcWALMBzPkCd4-89" value="0x17FFF" style="text;html=1;align=left;verticalAlign=middle;whiteSpace=wrap;rounded=0;" vertex="1" parent="1">
          <mxGeometry x="450" y="460" width="50" height="30" as="geometry" />
        </mxCell>
        <mxCell id="kO967tKkcWALMBzPkCd4-90" value="0x1BFFF" style="text;html=1;align=left;verticalAlign=middle;whiteSpace=wrap;rounded=0;" vertex="1" parent="1">
          <mxGeometry x="450" y="500" width="50" height="30" as="geometry" />
        </mxCell>
        <mxCell id="kO967tKkcWALMBzPkCd4-91" value="0x1FFFF" style="text;html=1;align=left;verticalAlign=middle;whiteSpace=wrap;rounded=0;" vertex="1" parent="1">
          <mxGeometry x="450" y="540" width="50" height="30" as="geometry" />
        </mxCell>
        <mxCell id="kO967tKkcWALMBzPkCd4-92" value="0x23FFF" style="text;html=1;align=left;verticalAlign=middle;whiteSpace=wrap;rounded=0;" vertex="1" parent="1">
          <mxGeometry x="450" y="580" width="50" height="30" as="geometry" />
        </mxCell>
        <mxCell id="kO967tKkcWALMBzPkCd4-93" value="0x27FFF" style="text;html=1;align=left;verticalAlign=middle;whiteSpace=wrap;rounded=0;" vertex="1" parent="1">
          <mxGeometry x="450" y="620" width="50" height="30" as="geometry" />
        </mxCell>
        <mxCell id="kO967tKkcWALMBzPkCd4-94" value="0x2BFFF" style="text;html=1;align=left;verticalAlign=middle;whiteSpace=wrap;rounded=0;" vertex="1" parent="1">
          <mxGeometry x="450" y="660" width="50" height="30" as="geometry" />
        </mxCell>
        <mxCell id="kO967tKkcWALMBzPkCd4-95" value="0x3FFF" style="text;html=1;align=right;verticalAlign=middle;whiteSpace=wrap;rounded=0;" vertex="1" parent="1">
          <mxGeometry x="40" y="339.65" width="50" height="30" as="geometry" />
        </mxCell>
        <mxCell id="kO967tKkcWALMBzPkCd4-96" value="0x7FFF" style="text;html=1;align=right;verticalAlign=middle;whiteSpace=wrap;rounded=0;" vertex="1" parent="1">
          <mxGeometry x="40" y="380" width="50" height="30" as="geometry" />
        </mxCell>
        <mxCell id="kO967tKkcWALMBzPkCd4-97" value="0xBFFF" style="text;html=1;align=right;verticalAlign=middle;whiteSpace=wrap;rounded=0;" vertex="1" parent="1">
          <mxGeometry x="40" y="420" width="50" height="30" as="geometry" />
        </mxCell>
        <mxCell id="kO967tKkcWALMBzPkCd4-98" value="Virtual Addresses" style="text;html=1;align=center;verticalAlign=middle;whiteSpace=wrap;rounded=0;" vertex="1" parent="1">
          <mxGeometry x="80" y="279.65" width="120" height="30" as="geometry" />
        </mxCell>
        <mxCell id="kO967tKkcWALMBzPkCd4-99" value="Physical Addresses" style="text;html=1;align=center;verticalAlign=middle;whiteSpace=wrap;rounded=0;" vertex="1" parent="1">
          <mxGeometry x="340" y="199.99999999999997" width="120" height="30" as="geometry" />
        </mxCell>
        <mxCell id="kO967tKkcWALMBzPkCd4-101" value="VIA" style="rounded=0;whiteSpace=wrap;html=1;fillColor=#e1d5e7;strokeColor=#000000;" vertex="1" parent="1">
          <mxGeometry x="560" y="640" width="80" height="30" as="geometry" />
        </mxCell>
        <mxCell id="kO967tKkcWALMBzPkCd4-102" value="VIA" style="rounded=0;whiteSpace=wrap;html=1;fillColor=#e1d5e7;strokeColor=#000000;" vertex="1" parent="1">
          <mxGeometry x="560" y="670" width="80" height="30" as="geometry" />
        </mxCell>
        <mxCell id="kO967tKkcWALMBzPkCd4-103" value="ACIA" style="rounded=0;whiteSpace=wrap;html=1;fillColor=#e1d5e7;strokeColor=#000000;" vertex="1" parent="1">
          <mxGeometry x="560" y="700" width="80" height="30" as="geometry" />
        </mxCell>
        <mxCell id="kO967tKkcWALMBzPkCd4-104" value="&lt;font style=&quot;font-size: 6px;&quot;&gt;Memory Bank Controller (MBC)&lt;/font&gt;" style="rounded=0;whiteSpace=wrap;html=1;fillColor=#e1d5e7;strokeColor=#000000;" vertex="1" parent="1">
          <mxGeometry x="560" y="730" width="80" height="30" as="geometry" />
        </mxCell>
        <mxCell id="kO967tKkcWALMBzPkCd4-105" value="IO Devices" style="text;html=1;align=center;verticalAlign=middle;whiteSpace=wrap;rounded=0;" vertex="1" parent="1">
          <mxGeometry x="560" y="610" width="80" height="30" as="geometry" />
        </mxCell>
        <mxCell id="kO967tKkcWALMBzPkCd4-106" value="microSD" style="rounded=0;whiteSpace=wrap;html=1;fillColor=#ffe6cc;strokeColor=#000000;" vertex="1" parent="1">
          <mxGeometry x="690" y="627.5" width="80" height="20" as="geometry" />
        </mxCell>
        <mxCell id="kO967tKkcWALMBzPkCd4-107" value="RTC" style="rounded=0;whiteSpace=wrap;html=1;fillColor=#ffe6cc;strokeColor=#000000;" vertex="1" parent="1">
          <mxGeometry x="690" y="647.5" width="80" height="20" as="geometry" />
        </mxCell>
        <mxCell id="kO967tKkcWALMBzPkCd4-108" value="GPIO" style="rounded=0;whiteSpace=wrap;html=1;fillColor=#ffe6cc;strokeColor=#000000;" vertex="1" parent="1">
          <mxGeometry x="690" y="667.5" width="80" height="20" as="geometry" />
        </mxCell>
        <mxCell id="kO967tKkcWALMBzPkCd4-109" value="&lt;font style=&quot;font-size: 6px;&quot;&gt;MCU Control&lt;/font&gt;" style="rounded=0;whiteSpace=wrap;html=1;fillColor=#ffe6cc;strokeColor=#000000;align=center;verticalAlign=bottom;" vertex="1" parent="1">
          <mxGeometry x="690" y="687.5" width="80" height="20" as="geometry" />
        </mxCell>
        <mxCell id="kO967tKkcWALMBzPkCd4-110" value="VIA Managed" style="text;html=1;align=center;verticalAlign=middle;whiteSpace=wrap;rounded=0;" vertex="1" parent="1">
          <mxGeometry x="690" y="597.5" width="80" height="30" as="geometry" />
        </mxCell>
        <mxCell id="kO967tKkcWALMBzPkCd4-111" value="" style="endArrow=none;dashed=1;html=1;rounded=0;entryX=0;entryY=0;entryDx=0;entryDy=0;" edge="1" parent="1" target="kO967tKkcWALMBzPkCd4-106">
          <mxGeometry width="50" height="50" relative="1" as="geometry">
            <mxPoint x="640" y="637.5" as="sourcePoint" />
            <mxPoint x="690" y="587.5" as="targetPoint" />
          </mxGeometry>
        </mxCell>
        <mxCell id="kO967tKkcWALMBzPkCd4-112" value="" style="endArrow=none;dashed=1;html=1;rounded=0;entryX=0;entryY=1;entryDx=0;entryDy=0;exitX=1;exitY=1;exitDx=0;exitDy=0;" edge="1" parent="1" source="kO967tKkcWALMBzPkCd4-102" target="kO967tKkcWALMBzPkCd4-109">
          <mxGeometry width="50" height="50" relative="1" as="geometry">
            <mxPoint x="640" y="697.5" as="sourcePoint" />
            <mxPoint x="690" y="687.5" as="targetPoint" />
          </mxGeometry>
        </mxCell>
        <mxCell id="kO967tKkcWALMBzPkCd4-115" value="" style="strokeWidth=1;html=1;shape=mxgraph.flowchart.annotation_2;align=left;labelPosition=right;pointerEvents=1;" vertex="1" parent="1">
          <mxGeometry x="500" y="640" width="50" height="120" as="geometry" />
        </mxCell>
      </root>
    </mxGraphModel>
  </diagram>
</mxfile>
